<svg width="367" height="189" viewBox="0 0 367 189" fill="none" xmlns="http://www.w3.org/2000/svg">
<path d="M366.828 187.349L365.154 187.475C361.628 187.589 355.082 187.693 345.518 187.787L337.779 187.855C332.242 187.899 325.951 187.941 318.905 187.98C311.859 188.019 304.058 188.056 295.502 188.09C278.273 188.158 259.684 188.208 239.735 188.24C229.76 188.257 219.446 188.268 208.792 188.275C203.889 188.284 187.143 188.285 158.553 188.276C147.411 188.268 136.766 188.255 126.616 188.238C120.921 188.234 106.811 188.201 84.2869 188.137C66.9613 188.08 51.6185 188.008 38.2587 187.921C8.43097 187.71 -3.95576 187.49 1.09852 187.262C3.32006 187.148 8.81937 187.044 17.5964 186.948C21.985 186.9 27.193 186.854 33.2203 186.81C35.3069 186.785 46.0946 186.726 65.5836 186.631C97.9726 186.491 137.257 186.418 183.438 186.412C194.983 186.414 206.097 186.419 216.78 186.429C242.734 186.461 257.789 186.485 261.945 186.502C280.725 186.546 297.782 186.608 313.114 186.686C328.447 186.765 340.502 186.852 349.279 186.948C358.816 187.071 363.555 187.148 363.496 187.178C365.426 187.233 366.537 187.29 366.828 187.349Z" fill="black" fill-opacity="0.403922"/>
<path d="M314.23 114.985C319.107 114.985 323.021 110.78 322.535 105.805C322.112 101.47 318.214 98.2932 313.858 98.2932L254.522 98.2944C253.656 98.2932 252.954 97.5913 252.954 96.7253C252.954 95.8591 253.656 95.1577 254.522 95.1577L313.75 95.158C320.037 95.1578 325.519 100.003 325.707 106.287C325.902 112.789 320.689 118.122 314.231 118.122L254.522 118.123C253.656 118.122 252.954 117.42 252.954 116.554C252.954 115.688 253.656 114.985 254.522 114.985H314.23Z" fill="#304E4A"/>
<path d="M322.535 105.805C323.021 110.78 319.107 114.985 314.23 114.985H254.819C257.409 109.421 257.409 103.857 254.819 98.2932L313.858 98.2937C318.214 98.2937 322.112 101.47 322.535 105.805Z" fill="#EBF0F3"/>
<path d="M317.412 102.101H256.17C256.114 101.88 256.041 101.66 255.977 101.439L317.412 101.44V102.101Z" fill="#E1E6E9"/>
<path d="M317.412 104.535L256.637 104.535C256.611 104.314 256.555 104.093 256.521 103.873L317.412 103.874V104.535Z" fill="#E1E6E9"/>
<path d="M317.412 106.97H256.742C256.747 106.749 256.747 106.529 256.742 106.308L317.412 106.309V106.97Z" fill="#E1E6E9"/>
<path d="M317.412 109.405L256.521 109.406C256.555 109.184 256.611 108.964 256.637 108.743L317.412 108.744V109.405Z" fill="#E1E6E9"/>
<path d="M317.412 111.839L255.977 111.839C256.041 111.618 256.114 111.398 256.17 111.178L317.412 111.179V111.839Z" fill="#E1E6E9"/>
<path d="M261.923 138.095C257.047 138.095 253.133 133.889 253.619 128.915C254.042 124.579 257.94 121.403 262.295 121.403L321.632 121.404C322.498 121.403 323.2 120.701 323.2 119.835C323.2 118.969 322.498 118.267 321.632 118.267L262.404 118.268C256.117 118.268 250.635 123.112 250.446 129.396C250.251 135.899 255.464 141.231 261.923 141.232L321.632 141.232C322.498 141.231 323.2 140.529 323.2 139.663V139.662C323.2 138.797 322.498 138.095 321.632 138.095L261.923 138.095Z" fill="#884636"/>
<path d="M253.619 128.915C253.133 133.889 257.047 138.095 261.923 138.095H321.334C318.745 132.531 318.745 126.967 321.334 121.403L262.296 121.404C257.939 121.403 254.042 124.579 253.619 128.915Z" fill="#EBF0F3"/>
<path d="M258.742 125.211L319.984 125.212C320.04 124.99 320.112 124.77 320.176 124.549L258.742 124.549V125.211Z" fill="#E1E6E9"/>
<path d="M258.742 127.645L319.516 127.645C319.543 127.424 319.598 127.203 319.632 126.983L258.742 126.983V127.645Z" fill="#E1E6E9"/>
<path d="M258.742 130.08H319.411C319.407 129.859 319.407 129.638 319.411 129.418L258.742 129.418V130.08Z" fill="#E1E6E9"/>
<path d="M258.742 132.515L319.632 132.515C319.598 132.294 319.543 132.073 319.516 131.853L258.742 131.854V132.515Z" fill="#E1E6E9"/>
<path d="M258.742 134.949L320.176 134.95C320.112 134.728 320.04 134.508 319.984 134.288L258.742 134.288V134.949Z" fill="#E1E6E9"/>
<path d="M262.6 160.83C257.724 160.831 253.81 156.625 254.296 151.65C254.719 147.315 258.617 144.139 262.972 144.139L322.309 144.139C323.174 144.139 323.876 143.437 323.876 142.571C323.876 141.705 323.174 141.003 322.309 141.003L263.081 141.004C256.794 141.003 251.312 145.848 251.123 152.132C250.928 158.635 256.141 163.967 262.599 163.967L322.309 163.968C323.175 163.967 323.877 163.265 323.877 162.399C323.877 161.533 323.175 160.83 322.309 160.83L262.6 160.83Z" fill="#535D66"/>
<path d="M254.296 151.65C253.81 156.625 257.724 160.831 262.6 160.831L322.011 160.832C319.422 155.267 319.422 149.703 322.011 144.139L262.972 144.139C258.616 144.139 254.719 147.315 254.296 151.65Z" fill="#EBF0F3"/>
<path d="M259.419 147.947L320.661 147.946C320.716 147.726 320.789 147.505 320.853 147.285L259.419 147.285V147.947Z" fill="#E1E6E9"/>
<path d="M259.419 150.38L320.193 150.381C320.219 150.16 320.275 149.939 320.309 149.719L259.419 149.719V150.38Z" fill="#E1E6E9"/>
<path d="M259.419 152.816L320.088 152.816C320.084 152.595 320.084 152.374 320.088 152.154L259.419 152.154V152.816Z" fill="#E1E6E9"/>
<path d="M259.419 155.251L320.309 155.252C320.275 155.03 320.219 154.809 320.193 154.589L259.419 154.589V155.251Z" fill="#E1E6E9"/>
<path d="M259.419 157.685L320.853 157.685C320.789 157.464 320.716 157.243 320.661 157.023L259.419 157.024V157.685Z" fill="#E1E6E9"/>
<path d="M315.471 183.827C320.348 183.827 324.262 179.622 323.776 174.647C323.353 170.312 319.455 167.136 315.099 167.136L255.763 167.136C254.897 167.136 254.195 166.434 254.195 165.568V165.569C254.195 164.702 254.897 164 255.763 164L314.991 164C321.278 164 326.76 168.845 326.949 175.129C327.144 181.631 321.931 186.964 315.472 186.964L255.763 186.965C254.897 186.964 254.195 186.262 254.195 185.396C254.195 184.53 254.897 183.828 255.763 183.828L315.471 183.829V183.827Z" fill="#81C665"/>
<path d="M323.776 174.648C324.262 179.622 320.348 183.827 315.471 183.827L256.061 183.828C258.65 178.264 258.65 172.7 256.061 167.136L315.099 167.136C319.456 167.136 323.353 170.312 323.776 174.648Z" fill="#EBF0F3"/>
<path d="M318.653 170.943L257.411 170.945C257.355 170.723 257.282 170.503 257.219 170.282L318.653 170.282V170.943Z" fill="#E1E6E9"/>
<path d="M318.653 173.377L257.879 173.378C257.852 173.156 257.797 172.936 257.763 172.715L318.653 172.716V173.377Z" fill="#E1E6E9"/>
<path d="M318.653 175.812L257.984 175.813C257.988 175.592 257.988 175.372 257.984 175.151L318.653 175.151V175.812Z" fill="#E1E6E9"/>
<path d="M318.653 178.248L257.763 178.249C257.797 178.027 257.852 177.806 257.879 177.586L318.653 177.587V178.248Z" fill="#E1E6E9"/>
<path d="M318.653 180.682L257.219 180.682C257.283 180.461 257.355 180.241 257.411 180.02L318.653 180.021V180.682Z" fill="#E1E6E9"/>
<path d="M237.435 183.827C242.312 183.827 246.225 179.622 245.74 174.647C245.317 170.312 241.419 167.135 237.063 167.135L177.727 167.136C176.861 167.136 176.159 166.433 176.159 165.568C176.159 164.701 176.861 164 177.727 164L236.954 164C243.242 164 248.724 168.845 248.912 175.129C249.107 181.631 243.894 186.964 237.436 186.964L177.727 186.965C176.861 186.964 176.159 186.262 176.159 185.396C176.159 184.53 176.861 183.827 177.727 183.827L237.435 183.827Z" fill="#304E4A"/>
<path d="M245.74 174.647C246.226 179.622 242.312 183.827 237.435 183.827L178.024 183.827C180.614 178.263 180.614 172.699 178.024 167.135L237.063 167.136C241.419 167.136 245.317 170.312 245.74 174.647Z" fill="#EBF0F3"/>
<path d="M240.617 170.943H179.375C179.319 170.722 179.246 170.502 179.182 170.282L240.617 170.282V170.943Z" fill="#E1E6E9"/>
<path d="M240.617 173.377L179.842 173.378C179.816 173.156 179.76 172.936 179.727 172.715L240.617 172.716V173.377Z" fill="#E1E6E9"/>
<path d="M240.617 175.812L179.948 175.812C179.952 175.592 179.952 175.371 179.948 175.151L240.617 175.151V175.812Z" fill="#E1E6E9"/>
<path d="M240.617 178.247L179.727 178.249C179.76 178.027 179.816 177.806 179.842 177.585L240.617 177.586V178.247Z" fill="#E1E6E9"/>
<path d="M240.617 180.682L179.182 180.681C179.246 180.46 179.319 180.24 179.375 180.02L240.617 180.021V180.682Z" fill="#E1E6E9"/>
<path d="M184.207 161.233C179.33 161.232 175.416 157.027 175.902 152.053C176.325 147.717 180.223 144.541 184.579 144.541L243.915 144.542C244.781 144.541 245.483 143.839 245.483 142.973C245.483 142.107 244.781 141.405 243.915 141.405L184.687 141.406C178.4 141.405 172.918 146.25 172.729 152.534C172.534 159.037 177.748 164.369 184.206 164.37L243.915 164.37C244.781 164.369 245.483 163.667 245.483 162.801C245.483 161.935 244.781 161.233 243.915 161.233L184.207 161.233Z" fill="#634C3C"/>
<path d="M175.902 152.053C175.416 157.027 179.33 161.232 184.207 161.232L243.617 161.233C241.028 155.668 241.028 150.105 243.617 144.541L184.579 144.541C180.222 144.541 176.325 147.717 175.902 152.053Z" fill="#EBF0F3"/>
<path d="M181.025 148.348L242.267 148.349C242.323 148.128 242.396 147.907 242.46 147.687L181.025 147.687V148.348Z" fill="#E1E6E9"/>
<path d="M181.025 150.782L241.8 150.783C241.826 150.562 241.881 150.341 241.915 150.121L181.025 150.121V150.782Z" fill="#E1E6E9"/>
<path d="M181.025 153.217L241.694 153.218C241.69 152.997 241.69 152.776 241.694 152.556L181.025 152.556V153.217Z" fill="#E1E6E9"/>
<path d="M181.025 155.653L241.915 155.654C241.881 155.432 241.826 155.211 241.8 154.991L181.025 154.991V155.653Z" fill="#E1E6E9"/>
<path d="M181.025 158.087H242.46C242.396 157.866 242.323 157.645 242.267 157.425L181.025 157.427V158.087Z" fill="#E1E6E9"/>
<path d="M238.474 138.558C243.351 138.558 247.264 134.353 246.779 129.379C246.355 125.043 242.458 121.867 238.102 121.867L178.766 121.868C177.9 121.867 177.198 121.165 177.198 120.299C177.198 119.433 177.9 118.731 178.766 118.731L237.993 118.732C244.28 118.732 249.763 123.577 249.951 129.86C250.146 136.363 244.933 141.695 238.475 141.695L178.766 141.697C177.9 141.695 177.198 140.993 177.198 140.127C177.198 139.261 177.9 138.559 178.766 138.559L238.474 138.558Z" fill="#0D6AAC"/>
<path d="M246.779 129.379C247.264 134.353 243.351 138.559 238.474 138.558L179.063 138.559C181.653 132.995 181.653 127.431 179.063 121.867L238.102 121.867C242.458 121.867 246.355 125.043 246.779 129.379Z" fill="#EBF0F3"/>
<path d="M241.655 125.674L180.414 125.675C180.358 125.454 180.285 125.233 180.221 125.013L241.655 125.014V125.674Z" fill="#E1E6E9"/>
<path d="M241.656 128.109L180.881 128.109C180.855 127.888 180.799 127.667 180.765 127.447L241.656 127.447V128.109Z" fill="#E1E6E9"/>
<path d="M241.656 130.544L180.986 130.544C180.991 130.323 180.991 130.102 180.986 129.882L241.656 129.882V130.544Z" fill="#E1E6E9"/>
<path d="M241.656 132.979L180.765 132.98C180.799 132.758 180.855 132.538 180.881 132.317L241.656 132.318V132.979Z" fill="#E1E6E9"/>
<path d="M241.655 135.413L180.221 135.413C180.285 135.192 180.358 134.971 180.413 134.751L241.655 134.753V135.413Z" fill="#E1E6E9"/>
<path d="M163 183.827C167.877 183.827 171.791 179.622 171.305 174.647C170.882 170.312 166.984 167.136 162.628 167.136L103.292 167.137C102.426 167.136 101.724 166.434 101.724 165.568C101.724 164.701 102.426 164 103.292 164L162.52 164C168.807 164 174.289 168.845 174.478 175.129C174.673 181.631 169.459 186.964 163.001 186.964L103.292 186.965C102.426 186.964 101.724 186.262 101.724 185.396C101.724 184.53 102.426 183.827 103.292 183.827L163 183.827Z" fill="#304E4A"/>
<path d="M171.305 174.648C171.791 179.622 167.877 183.827 163 183.827L103.59 183.827C106.179 178.263 106.179 172.7 103.59 167.136L162.628 167.136C166.985 167.136 170.882 170.312 171.305 174.648Z" fill="#EBF0F3"/>
<path d="M166.182 170.943L104.94 170.943C104.884 170.723 104.811 170.502 104.748 170.282L166.182 170.282V170.943Z" fill="#E1E6E9"/>
<path d="M166.182 173.377L105.407 173.378C105.381 173.156 105.326 172.936 105.292 172.716L166.182 172.716V173.377Z" fill="#E1E6E9"/>
<path d="M166.182 175.812L105.513 175.812C105.517 175.591 105.517 175.371 105.513 175.151L166.182 175.151V175.812Z" fill="#E1E6E9"/>
<path d="M166.182 178.247L105.292 178.249C105.326 178.027 105.381 177.806 105.407 177.586L166.182 177.586V178.247Z" fill="#E1E6E9"/>
<path d="M166.182 180.682L104.747 180.681C104.811 180.461 104.884 180.24 104.94 180.02L166.182 180.021V180.682Z" fill="#E1E6E9"/>
<path d="M109.772 161.232C104.895 161.232 100.982 157.027 101.467 152.052C101.89 147.717 105.788 144.541 110.144 144.541L169.48 144.542C170.346 144.541 171.048 143.839 171.048 142.973C171.048 142.107 170.346 141.405 169.48 141.405L110.253 141.406C103.965 141.405 98.4832 146.25 98.2946 152.534C98.0996 159.037 103.313 164.369 109.771 164.369L169.48 164.37C170.346 164.369 171.048 163.667 171.048 162.801C171.048 161.935 170.346 161.232 169.48 161.232H109.772Z" fill="#634C3C"/>
<path d="M101.467 152.053C100.981 157.027 104.895 161.233 109.772 161.232H169.182C166.593 155.669 166.593 150.105 169.183 144.541L110.144 144.541C105.788 144.541 101.89 147.717 101.467 152.053Z" fill="#EBF0F3"/>
<path d="M106.59 148.348L167.832 148.349C167.888 148.128 167.961 147.907 168.025 147.687L106.59 147.688V148.348Z" fill="#E1E6E9"/>
<path d="M106.59 150.783L167.365 150.783C167.391 150.562 167.447 150.341 167.481 150.121L106.59 150.121V150.783Z" fill="#E1E6E9"/>
<path d="M106.59 153.218L167.26 153.218C167.255 152.997 167.255 152.776 167.26 152.556L106.59 152.557V153.218Z" fill="#E1E6E9"/>
<path d="M106.59 155.653L167.481 155.654C167.447 155.432 167.391 155.212 167.365 154.991L106.59 154.992V155.653Z" fill="#E1E6E9"/>
<path d="M106.59 158.087L168.025 158.086C167.961 157.866 167.888 157.645 167.832 157.425L106.59 157.427V158.087Z" fill="#E1E6E9"/>
<g filter="url(#filter0_d_24_218)">
<path d="M103.298 20.0683L102.946 19.7741C101.644 18.7203 100.666 17.6844 100.011 16.6668C99.2297 15.4778 98.6815 14.0275 98.3667 12.3155C98.1418 11.0496 98.1502 9.81301 98.392 8.60581C98.5538 7.57687 99.1596 6.35329 100.21 4.93515C102.172 2.57162 104.524 1.03935 107.266 0.338353C108.062 0.141353 108.839 0.0287287 109.596 0.000461985C110.46 -0.00473801 111.051 0.0339621 111.367 0.116429C111.786 0.191629 112.19 0.311404 112.58 0.475804L114.528 1.44919C114.835 1.57399 115.085 1.6366 115.278 1.63694C115.912 1.64787 116.657 1.33782 117.515 0.706883C118.086 1.52648 118.319 2.30671 118.213 3.04758C118.178 3.72951 117.734 5.08311 116.882 7.10837L109.13 17.1052L103.298 20.0683Z" fill="black"/>
</g>
<g filter="url(#filter1_d_24_218)">
<path d="M109.266 25.7679L111.841 21.9222C113.727 22.5521 115.178 22.9481 116.193 23.1104C117.334 23.2917 118.194 23.2268 118.773 22.9158C119.111 22.713 119.347 22.5031 119.481 22.286C119.599 22.2119 119.788 21.7767 120.048 20.9803C120.278 20.1452 120.404 18.7236 120.427 16.7156L122.2 16.3521L119.64 12.0596C119.293 8.75523 118.828 6.45192 118.246 5.14972C117.94 4.36159 117.344 3.83418 116.457 3.56745C115.7 3.39391 114.748 3.59003 113.6 4.15583C112.804 4.56923 112.195 5.16243 111.771 5.93537C111.388 6.64097 111.232 7.64728 111.303 8.95441C111.423 10.4305 111.736 11.5248 112.24 12.2374C110.68 10.3664 109.373 9.77177 108.318 10.4534C108.084 10.59 107.852 10.9353 107.624 11.4893C107.56 11.5064 107.255 12.6691 106.709 14.9774L106.343 16.1846C106.075 16.9989 105.749 17.6989 105.367 18.2847C104.838 19.28 103.682 19.7036 101.9 19.5555L109.266 25.7679Z" fill="#FABB9B"/>
</g>
<path d="M86.3535 183.318C91.2303 183.278 95.1084 179.039 94.5807 174.069C94.1211 169.737 90.1968 166.594 85.8408 166.631L26.5069 167.131C25.6409 167.138 24.9332 166.442 24.9258 165.576C24.9186 164.71 25.6145 164.002 26.4805 163.995L85.7058 163.497C91.9928 163.443 97.5158 168.242 97.7574 174.524C98.0072 181.025 92.8388 186.401 86.3808 186.456L26.6738 186.958C25.8079 186.966 25.1 186.269 25.0928 185.403C25.0855 184.538 25.7814 183.829 26.6474 183.821L86.3535 183.318Z" fill="#634C3C"/>
<path d="M94.5808 174.069C95.1087 179.039 91.2304 183.278 86.3536 183.318L26.945 183.819C29.4875 178.233 29.4406 172.67 26.8044 167.128L85.8409 166.631C90.1971 166.594 94.1212 169.737 94.5808 174.069Z" fill="#EBF0F3"/>
<path d="M89.4265 170.408L28.1867 170.924C28.129 170.704 28.0543 170.484 27.9888 170.265L89.4209 169.747L89.4265 170.408Z" fill="#E1E6E9"/>
<path d="M89.4471 172.842L28.6747 173.355C28.6466 173.133 28.5892 172.913 28.5535 172.693L89.4415 172.18L89.4471 172.842Z" fill="#E1E6E9"/>
<path d="M89.4676 175.277L28.8005 175.789C28.8029 175.567 28.8011 175.347 28.7949 175.127L89.4621 174.616L89.4676 175.277Z" fill="#E1E6E9"/>
<path d="M89.488 177.712L28.5999 178.225C28.6319 178.004 28.6856 177.783 28.71 177.562L89.4824 177.051L89.488 177.712Z" fill="#E1E6E9"/>
<path d="M89.5086 180.147L28.0762 180.663C28.1383 180.442 28.209 180.221 28.2631 180.001L89.503 179.485L89.5086 180.147Z" fill="#E1E6E9"/>
<path d="M73.1489 152.472L79.7023 160.636C78.4741 161.151 77.602 161.497 77.0861 161.672C76.3949 161.921 75.7164 162.114 75.0508 162.253C73.8864 162.495 72.8445 162.475 71.925 162.192C71.3791 162.087 70.5377 161.616 69.4008 160.779C68.4438 159.987 67.5081 159.103 66.5938 158.127L64.8328 159.477L59.0186 154.464L62.3998 148.157L73.1489 152.472Z" fill="black"/>
<g filter="url(#filter2_d_24_218)">
<path d="M101.587 20.5342L101.895 19.1616C103.079 19.298 104.866 20.1415 107.256 21.6921C108.147 22.3109 108.793 23.2566 109.195 24.5293L109.904 32.0245C110.274 44.9259 110.438 53.3529 110.398 57.3055C110.426 64.6517 109.936 70.7246 108.926 75.524L97.1021 69.1196L101.587 20.5342Z" fill="#130202"/>
</g>
<g filter="url(#filter3_d_24_218)">
<path d="M73.9234 154.03L61.8608 149.529L81.68 84.436L96.8223 67.449L105.669 72.274C105.471 75.3826 106.233 78.0464 107.953 80.2655C109.339 82.3327 111.595 85.2699 114.722 89.077C115.968 90.6544 118.196 93.0172 121.407 96.1656C122.398 97.3216 122.942 98.035 123.037 98.306C123.993 99.7715 124.228 101.58 123.741 103.733C123.596 104.766 122.688 106.807 121.018 109.856C114.535 119.969 109.656 127.879 106.383 133.585L97.4677 127.23L112.003 103.443L93.4497 91.6655L73.9234 154.03Z" fill="white"/>
</g>
<g filter="url(#filter4_d_24_218)">
<path d="M91.3596 80.8657L74.4888 77.7131C75.0733 69.1653 75.8843 62.3394 76.9218 57.2354C77.7367 53.6266 78.2814 51.4896 78.556 50.8242C79.4449 48.0345 80.4866 45.3869 81.6812 42.8813C84.6668 36.7445 87.8711 31.7144 91.294 27.7914C93.4507 24.9754 96.7815 22.9473 101.286 21.7068L101.473 19.9253C103.715 20.6647 105.19 21.6402 105.898 22.8518C106.564 23.5912 107.255 25.4829 107.97 28.5269C108.356 30.2577 108.812 32.9825 109.336 36.7013C109.095 43.9801 108.756 48.6946 108.318 50.8448C107.672 55.3216 106.323 59.254 104.271 62.642C103.359 64.4246 101 67.5748 97.1935 72.0928L91.3596 80.8657Z" fill="white"/>
</g>
<path d="M108.833 82.4264L112.546 72.0409L117.632 73.3983L121.431 66.5841L113.666 62.4933C113.853 58.3648 113.695 54.3686 113.192 50.5045C112.795 46.962 111.603 39.8486 109.616 29.1641L108.833 82.4264Z" fill="white"/>
<g filter="url(#filter5_d_24_218)">
<path d="M103.844 72.5601L107.134 72.1243L110.424 71.6885L108.149 86.4578L103.844 72.5601Z" fill="white"/>
</g>
<g filter="url(#filter6_d_24_218)">
<path d="M98.827 126.758L98.195 127.487C95.3382 130.681 93.5655 133.173 92.8768 134.964C92.173 136.586 92.3835 138.607 93.5083 141.026L99.3508 141.351L99.7052 139.555C99.7201 139.984 99.8324 140.282 100.042 140.447C100.422 140.719 100.72 140.875 100.939 140.917C101.686 141.208 103.416 141.425 106.13 141.567C114.887 141.818 119.661 141.458 120.454 140.486C120.886 139.928 120.077 139.274 118.027 138.523C116.4 137.999 114.04 137.546 110.948 137.163L98.827 126.758Z" fill="black"/>
</g>
<g filter="url(#filter7_d_24_218)">
<path d="M101.633 95.8214L97.7971 111.783L93.961 127.745L47.4509 116.323L55.095 83.1528L101.633 95.8214Z" fill="black"/>
</g>
<g filter="url(#filter8_d_24_218)">
<path d="M73.2007 89.0118L74.9895 84.8826L84.0891 87.7169L83.2337 92.8473C81.5799 91.8185 80.6271 91.0163 80.3752 90.4408C80.0208 89.876 80.0641 88.9676 80.5053 87.7155L76.1216 86.5854L75.4598 89.1996L73.2007 89.0118Z" fill="black"/>
</g>
<path d="M119.071 67.0435L119.581 67.2361C121.461 67.9651 122.938 68.399 124.012 68.5378C124.186 68.5824 124.62 68.6019 125.315 68.5962C125.667 68.5803 126.304 68.5047 127.225 68.3694C127.598 68.3324 127.82 68.3166 127.891 68.3221C128.312 68.3243 128.634 68.3629 128.857 68.4379C129.3 68.5513 129.748 68.834 130.199 69.286C130.718 69.8967 131.007 70.2938 131.066 70.4772C131.428 71.2578 131.607 71.7381 131.604 71.9183C131.675 72.2528 131.703 72.5851 131.69 72.9154C131.677 73.2453 131.613 73.563 131.499 73.8683L131.286 74.3077C131.117 74.5919 130.905 74.8564 130.651 75.101C129.84 75.8444 128.868 76.365 127.736 76.6627C126.851 76.8509 126.318 76.9276 126.137 76.8926C125.479 76.8898 124.889 76.7829 124.367 76.5718C123.846 76.36 123.372 76.0952 122.946 75.7773C120.997 74.1717 119.592 73.0453 118.73 72.3982L115.622 70.8901L119.071 67.0435Z" fill="#FABB9B"/>
<g filter="url(#filter9_d_24_218)">
<path d="M85.3885 79.1807L85.2388 80.0784C84.7015 83.4218 84.1741 85.7701 83.6565 87.1233C83.3316 87.9476 83.028 88.5071 82.7457 88.8019C82.4372 89.1604 82.1059 89.3964 81.7519 89.5099C80.7456 89.838 79.5899 89.2836 78.285 87.8466C77.5832 87.046 77.0463 86.1998 76.6745 85.3081C76.5588 85.0224 76.4738 84.7481 76.4196 84.4849L76.3659 84.1057C76.3491 83.8632 76.3661 83.6389 76.417 83.4329C76.5249 83.0245 76.7313 82.6695 77.0361 82.3679C77.5088 81.9236 78.0645 81.5246 78.7035 81.1709L79.2124 78.0898L85.3885 79.1807Z" fill="#FABB9B"/>
</g>
<path d="M112.572 12.7598L112.449 11.9006C111.74 10.3126 111.325 9.01621 111.204 8.01147C111.092 6.93534 111.217 6.14564 111.577 5.64258C111.823 5.23924 112.239 4.78468 112.825 4.27881C113.729 3.85201 114.443 3.58625 114.966 3.48145C115.413 3.38691 115.831 3.40179 116.219 3.52612C116.685 3.67746 117.217 3.98542 117.813 4.44995L118.23 2.74414L112.426 2.58447L110.022 2.66284L108.997 3.45044L110.791 10.092L112.572 12.7598Z" fill="black"/>
<path d="M118.099 66.6738L119.723 66.6829L121.347 66.6919L117.939 73.5605L111.605 72.0542L118.099 66.6738Z" fill="white"/>
<g filter="url(#filter10_d_24_218)">
<path d="M74.8035 76.377L74.6419 77.3892L74.4802 78.4016L85.8045 80.4817L87.3744 72.9412L74.8035 76.377Z" fill="white"/>
</g>
<g filter="url(#filter11_d_24_218)">
<path d="M96.4878 67.7051L98.9621 67.3315C102.819 69.1238 105.296 70.1135 106.392 70.3007C106.684 70.3627 106.948 70.4012 107.185 70.4164C107.33 70.4464 107.636 70.4269 108.102 70.3575C108.544 70.2677 109.009 70.0108 109.497 69.5868L110.737 75.4279L96.4878 67.7051Z" fill="white"/>
</g>
<g filter="url(#filter12_d_24_218)">
<path d="M110.505 73.1873L108.237 72.6506L105.97 72.1143C107.298 63.6978 108.626 55.281 109.954 46.8638L112.05 64.095L110.505 73.1873Z" fill="white"/>
</g>
<path d="M326.758 71.0355L326.758 62.024L335.445 57.2231L288.439 32.1172L241.428 57.2256L260.169 68.1096V74.519V75.0234C260.219 74.9971 260.283 74.9729 260.338 74.9463C260.138 75.2217 260.008 75.4905 260.008 75.7725C260.008 78.9187 272.729 81.4835 288.439 81.4835C304.139 81.4834 316.874 78.9188 316.874 75.7726C316.874 75.4906 316.737 75.2218 316.543 74.9462C316.598 74.9794 316.662 74.9969 316.711 75.0233V74.5189V68.0922L324.887 63.0619V71.0355C323.995 71.4012 323.367 72.287 323.367 73.3136C323.367 74.6708 324.466 75.7726 325.821 75.7726C327.189 75.7726 328.287 74.6708 328.287 73.3138C328.287 72.287 327.661 71.4012 326.758 71.0355ZM288.439 79.3177C274.498 79.3172 263.205 77.7269 263.205 75.7748C263.205 73.8226 274.498 72.2362 288.439 72.2367C302.372 72.2366 313.67 73.8228 313.67 75.7747C313.67 77.7268 302.372 79.3175 288.439 79.3177ZM316.096 62.8572C314.223 60.8542 307.486 55.5973 288.439 55.5974C269.38 55.5973 262.654 60.8588 260.783 62.8635L260.783 60.96C260.783 60.96 266.238 52.7704 288.439 52.7708C310.636 52.7704 316.096 60.9602 316.096 60.9602L316.096 62.8572Z" fill="black"/>
<path d="M288.439 72.1758C274.557 72.1753 263.144 73.7429 263.144 75.7749C263.144 77.8066 274.557 79.3784 288.439 79.3789C302.313 79.3785 313.731 77.8067 313.731 75.7748C313.731 73.7433 302.313 72.1756 288.439 72.1758Z" fill="white"/>
<path d="M288.439 52.7319C266.228 52.7318 260.759 60.926 260.751 60.9387C260.747 60.945 260.744 60.9526 260.744 60.9602L260.744 62.8638C260.744 62.8799 260.754 62.8946 260.769 62.9004C260.774 62.9021 260.778 62.9031 260.783 62.9031C260.794 62.9031 260.804 62.8986 260.812 62.8906C262.673 60.8958 269.388 55.6366 288.439 55.637C307.479 55.6366 314.204 60.8916 316.068 62.884C316.075 62.8923 316.086 62.8965 316.096 62.8965C316.101 62.8965 316.106 62.8957 316.111 62.8938C316.125 62.8881 316.135 62.8735 316.135 62.8574L316.135 60.9604C316.135 60.9526 316.133 60.945 316.129 60.9387C316.121 60.9262 310.648 52.7315 288.439 52.7319Z" fill="white"/>
<path d="M316.096 62.8574C314.223 60.8544 307.486 55.5976 288.439 55.5977C269.38 55.5976 262.654 60.8591 260.783 62.8638L260.783 60.9602C260.783 60.9602 266.238 52.7706 288.439 52.771C310.636 52.7706 316.096 60.9604 316.096 60.9604L316.096 62.8574Z" fill="black"/>
<path d="M326.758 71.0355L326.758 62.024L335.445 57.2231L288.439 32.1172L241.428 57.2256L260.169 68.1096V74.519V75.0234C260.219 74.9971 260.283 74.9729 260.338 74.9463C260.138 75.2217 260.008 75.4905 260.008 75.7725C260.008 78.9187 272.729 81.4835 288.439 81.4835C304.139 81.4834 316.874 78.9188 316.874 75.7726C316.874 75.4906 316.737 75.2218 316.543 74.9462C316.598 74.9794 316.662 74.9969 316.711 75.0233V74.5189V68.0922L324.887 63.0619V71.0355C323.995 71.4012 323.367 72.287 323.367 73.3136C323.367 74.6708 324.466 75.7726 325.821 75.7726C327.189 75.7726 328.287 74.6708 328.287 73.3138C328.287 72.287 327.661 71.4012 326.758 71.0355ZM288.439 79.3177C274.498 79.3172 263.205 77.7269 263.205 75.7748C263.205 73.8226 274.498 72.2362 288.439 72.2367C302.372 72.2366 313.67 73.8228 313.67 75.7747C313.67 77.7268 302.372 79.3175 288.439 79.3177Z" fill="black"/>
<path d="M288.439 72.1758C274.557 72.1753 263.144 73.7429 263.144 75.7749C263.144 77.8066 274.557 79.3784 288.439 79.3789C302.313 79.3785 313.731 77.8067 313.731 75.7748C313.731 73.7433 302.313 72.1756 288.439 72.1758Z" fill="#222B32"/>
<path d="M288.439 52.7319C266.228 52.7318 260.759 60.926 260.751 60.9387C260.747 60.945 260.744 60.9526 260.744 60.9602L260.744 62.8638C260.744 62.8799 260.754 62.8946 260.769 62.9004C260.774 62.9021 260.778 62.9031 260.783 62.9031C260.794 62.9031 260.804 62.8986 260.812 62.8906C262.673 60.8958 269.388 55.6366 288.439 55.637C307.479 55.6366 314.204 60.8916 316.068 62.884C316.075 62.8923 316.086 62.8965 316.096 62.8965C316.101 62.8965 316.106 62.8957 316.111 62.8938C316.125 62.8881 316.135 62.8735 316.135 62.8574L316.135 60.9604C316.135 60.9526 316.133 60.945 316.129 60.9387C316.121 60.9262 310.648 52.7315 288.439 52.7319Z" fill="#FF0000"/>
<path d="M326.864 61.9226L324.888 63.009V70.689C323.945 71.0755 323.281 72.0112 323.281 73.0962C323.281 74.53 324.443 75.6943 325.875 75.6943C327.32 75.6943 328.48 74.5305 328.48 73.0962C328.48 72.0114 327.819 71.0755 326.864 70.689L326.864 61.9226Z" fill="#FCB826"/>
<path d="M239.154 77.7695L292.567 77.7698L345.979 77.7703C345.979 84.1394 345.979 90.5088 345.979 96.8783C310.371 96.8785 274.763 96.8787 239.154 96.879C239.154 90.509 239.154 84.1391 239.154 77.7695Z" fill="white"/>
<path d="M239.112 80.1299H292.524L345.936 80.1304C345.936 85.7471 345.936 91.364 345.936 96.9808C310.328 96.981 274.72 96.9812 239.112 96.9816C239.112 91.3642 239.112 85.7469 239.112 80.1299Z" fill="white"/>
<path d="M239.112 91.7375C239.112 93.4856 239.112 95.2336 239.112 96.9817C253.526 96.9816 267.939 96.9815 282.353 96.9814C284.903 96.9814 287.451 96.9814 289.998 96.9814L290.007 96.9822C290.02 97.6494 290.03 98.6831 290.037 100.104L297.395 100.105C297.407 98.6067 297.415 97.6506 297.428 97.0454C297.472 97.0786 297.509 97.1081 297.54 97.1338C297.65 97.219 297.781 97.2942 297.867 97.2942C297.872 97.2942 297.878 97.2934 297.883 97.2932C297.899 97.2912 297.916 97.2866 297.932 97.2759C297.949 97.2651 297.958 97.25 297.963 97.2407C297.984 97.2019 298.001 97.1101 298.012 96.9814L298.005 96.9822C300.864 96.9816 303.721 96.9813 306.577 96.9811L306.572 96.9821C319.677 96.9816 332.783 96.9812 345.891 96.981L345.936 96.9817C345.936 96.947 345.936 96.9126 345.936 96.8782C345.965 95.1645 345.979 93.4509 345.979 91.7375H291.293H239.112ZM306.568 96.9811C303.716 96.9813 300.864 96.9814 298.012 96.9814C300.863 96.9809 303.713 96.9813 306.564 96.9811H306.568ZM292.876 98.1746C292.876 98.1746 292.876 98.1738 292.876 98.1746Z" fill="#DFD9D9" fill-opacity="0.286275"/>
<path d="M301.988 89.8937L302.052 89.9064C302.051 89.9095 302.05 89.9125 302.049 89.9147L301.988 89.8937L301.986 89.8942C301.986 89.8944 301.986 89.8939 301.986 89.8942L301.988 89.8937ZM293.518 81.9226C294.202 81.9226 295.368 82.0735 295.713 82.2234L295.714 82.2241C295.751 82.239 295.79 82.2551 295.845 82.2781C295.916 82.3076 296.011 82.3469 296.098 82.3826C296.172 82.4128 296.265 82.4514 296.334 82.4788C296.676 82.6214 297.028 82.8296 297.667 83.2725C298.396 83.7793 299.472 85.3672 299.715 86.2922C299.76 86.4773 299.847 86.7756 299.914 86.967C299.99 87.2165 300.012 87.5345 299.99 88.3265C299.968 89.2178 299.932 89.4369 299.76 89.9523C299.306 91.3024 298.606 92.3319 297.569 93.1532C297.292 93.3752 297.051 93.5433 296.999 93.5616H296.997C296.993 93.5616 296.99 93.5624 296.987 93.5631C296.924 93.5751 296.739 93.6739 296.566 93.7736L296.565 93.7743C296.373 93.8876 296.028 94.0387 295.793 94.1097C295.552 94.1756 295.294 94.2711 295.215 94.3107C295.025 94.4079 294.392 94.4769 293.758 94.4769C293.481 94.4769 293.209 94.4635 292.983 94.4352L292.98 94.4349C292.597 94.3929 292.273 94.3331 292.212 94.308L292.211 94.3082C292.159 94.2694 291.965 94.202 291.791 94.153C291.442 94.0553 290.496 93.6039 290.392 93.5033H290.391C290.387 93.4945 290.381 93.4879 290.377 93.4825C290.338 93.4363 290.195 93.3497 290.065 93.278L290.062 93.2765C289.778 93.1383 288.63 91.9701 288.461 91.6527C288.403 91.5433 288.287 91.3199 288.207 91.1593L288.206 91.1581C287.659 90.1136 287.508 89.462 287.508 88.1322C287.515 87.2172 287.61 86.5585 287.794 86.119C288.019 85.5643 288.211 85.1459 288.252 85.0858C288.254 85.0843 288.254 85.0836 288.256 85.0814C288.287 85.0485 288.348 84.9388 288.403 84.8363L288.403 84.8353C288.681 84.2943 289.864 83.1107 290.405 82.8333L290.406 82.8325C290.508 82.7781 290.617 82.717 290.651 82.6868C290.652 82.6855 290.652 82.6851 290.653 82.6848C290.699 82.6484 291.099 82.4683 291.686 82.2178C291.804 82.1761 292.141 82.0969 292.437 82.0535C292.621 82.0266 292.776 82.0029 292.931 81.9795C293.024 81.9651 293.099 81.9541 293.146 81.9473C293.163 81.9446 293.149 81.9465 293.165 81.9446L293.167 81.9441C293.251 81.9297 293.371 81.9226 293.518 81.9226ZM292.719 78.1274C292.689 78.1274 292.665 78.1414 292.648 78.1555C292.602 78.1953 292.579 78.2698 292.579 78.3403C292.579 78.3828 292.569 78.4121 292.563 78.4238L292.561 78.4243C292.539 78.4326 292.527 78.449 292.525 78.4512C292.475 78.5115 292.38 78.7681 292.291 79.0481L292.291 79.0498C292.2 79.3638 292.107 79.6123 292.081 79.6482L292.079 79.6484C292.077 79.6499 292.076 79.6514 292.074 79.6531C292.022 79.7039 291.965 79.8596 291.926 79.9961C291.872 80.1966 291.83 80.2222 291.81 80.2222C291.772 80.2222 291.697 80.1753 291.552 80.0198C291.307 79.7605 290.309 78.8567 290.188 78.7932C290.185 78.7917 290.169 78.783 290.149 78.783C290.094 78.783 290.078 78.8433 290.079 78.8433C290.06 78.9226 290.028 79.3164 290.002 79.7705C289.973 80.2949 289.914 80.779 289.871 80.8655L289.869 80.8701L289.817 80.9971L289.337 80.7352L289.335 80.7343C288.626 80.3515 288.026 80.0458 287.929 80.0238C287.927 80.0233 287.926 80.0228 287.924 80.0226L287.923 80.0228L287.908 80.0209L287.906 80.0211L287.867 80.0336C287.84 80.0528 287.836 80.0865 287.836 80.0865C287.824 80.1639 287.863 80.5485 287.928 80.9857C287.958 81.1893 287.984 81.3639 288.008 81.5236C288.023 81.6198 288.04 81.7347 288.048 81.7919C288.052 81.8197 288.056 81.8431 288.058 81.8622C287.905 81.8531 287.554 81.767 287.482 81.7159C287.479 81.7137 287.475 81.7113 287.473 81.7096C287.371 81.6466 286.501 81.4091 286.354 81.4044H286.352L286.349 81.4039H286.347L286.337 81.4047C286.285 81.4125 286.271 81.4613 286.268 81.4755C286.261 81.5065 286.265 81.5469 286.27 81.5844C286.29 81.7158 286.359 81.931 286.439 82.0531C286.482 82.1341 286.594 82.3873 286.679 82.6222C286.766 82.8612 286.871 83.0944 286.905 83.1459L286.91 83.153C286.958 83.2174 287.141 83.7501 287.183 83.9271L287.181 83.9274C287.084 83.9396 286.857 83.9515 286.582 83.9515C286.202 83.9515 285.596 83.9735 285.231 83.9952L285.23 83.9955L284.575 84.0463C284.55 84.0482 284.528 84.0643 284.518 84.0873C284.509 84.1107 284.513 84.1373 284.529 84.1564L285.082 84.8043C285.389 85.1535 285.614 85.4757 285.627 85.538C285.623 85.5665 285.572 85.6107 285.242 85.6857C284.329 85.8927 284.04 85.9586 283.967 86.0375C283.956 86.0494 283.947 86.0631 283.942 86.0792L283.94 86.0841C283.933 86.1132 283.945 86.1381 283.949 86.1449C284.011 86.2672 284.614 86.767 284.793 86.8461L284.794 86.8463C284.907 86.8939 285.515 87.3876 285.647 87.5272L285.645 87.5275C285.612 87.5548 285.548 87.5968 285.469 87.6342L285.467 87.6349C285.357 87.6901 285.126 87.8148 284.887 87.9442L284.716 88.0363C284.715 88.0366 284.713 88.038 284.711 88.0394C284.435 88.1986 284.075 88.3928 283.919 88.4637L283.917 88.4647L283.626 88.6105C283.602 88.6222 283.588 88.6466 283.589 88.6727C283.589 88.6986 283.605 88.7218 283.63 88.7321L283.994 88.8846L284.003 88.889C284.135 88.9452 284.071 88.9178 284.219 88.9811C284.263 89.0001 284.454 89.0819 284.5 89.1014C284.596 89.1425 284.68 89.1788 284.757 89.212C284.975 89.3062 285.262 89.4244 285.396 89.4691C285.688 89.5784 285.706 89.6276 285.684 89.6876C285.653 89.7689 285.542 89.8908 285.32 90.0995C284.507 90.8619 284.272 91.077 284.258 91.1974C284.255 91.2216 284.26 91.2438 284.268 91.2628C284.276 91.2806 284.287 91.2946 284.296 91.3048C284.3 91.31 284.306 91.3155 284.31 91.319C284.389 91.3851 284.69 91.4396 284.982 91.4669H284.984C285.717 91.5272 285.927 91.5782 285.955 91.6215L285.953 91.6217C285.938 91.6761 285.826 91.8701 285.676 92.0822C285.529 92.2827 285.396 92.4904 285.377 92.5514C285.375 92.5563 285.372 92.5665 285.372 92.5782L285.37 92.5785C285.355 92.6139 285.292 92.7164 285.204 92.8297C285.113 92.9467 285.031 93.0685 285.014 93.1166C285.012 93.1219 285.008 93.1337 285.008 93.1473C285.008 93.2037 285.065 93.2196 285.066 93.2196C285.11 93.2336 285.216 93.2374 285.341 93.2374C285.88 93.2374 287.103 93.1618 287.241 93.1044C287.246 93.1022 287.256 93.0975 287.265 93.09L287.27 93.0856C287.288 93.069 287.385 93.0397 287.499 93.0397C287.586 93.0397 287.61 93.0433 287.619 93.0482L287.617 93.0485C287.618 93.0516 287.619 93.0592 287.619 93.0731C287.619 93.1114 287.61 93.1703 287.593 93.2672C287.521 93.6969 287.354 94.3434 287.272 94.5079L287.271 94.5092C287.2 94.6586 286.99 95.4401 286.993 95.5558C286.993 95.559 286.993 95.5963 287.023 95.618C287.041 95.6319 287.062 95.6332 287.068 95.6332C287.07 95.6332 287.071 95.6332 287.07 95.6332C287.072 95.6332 287.075 95.6332 287.077 95.6332C287.188 95.6273 287.928 95.3656 288.021 95.296C288.025 95.2933 288.031 95.2885 288.036 95.2819C288.075 95.248 288.338 95.1471 288.71 95.0394L288.789 95.0187L288.743 95.8373V95.8387C288.723 96.2847 288.72 96.6842 288.745 96.7672C288.747 96.7723 288.762 96.8226 288.814 96.8251H288.817C288.827 96.8249 288.836 96.8229 288.842 96.8214C288.901 96.8055 289.079 96.7013 289.247 96.5809L289.265 96.569L289.326 96.528C289.326 96.5278 289.375 96.4952 289.381 96.4911C289.781 96.223 289.913 96.1376 289.973 96.11H289.975C290.014 96.4945 290.039 98.7555 290.046 103.142L290.068 110.255C290.068 110.283 290.085 110.308 290.112 110.318C290.119 110.321 290.127 110.322 290.135 110.322C290.154 110.322 290.173 110.313 290.186 110.298L290.638 109.752C290.884 109.454 291.204 109.083 291.349 108.924L291.35 108.923C291.393 108.873 291.477 108.775 291.571 108.666C291.726 108.484 291.954 108.219 292.161 107.979C292.216 107.915 292.234 107.894 292.289 107.831L292.29 107.83C292.662 107.385 293.125 106.842 293.323 106.615C293.514 106.396 293.704 106.236 293.755 106.224H293.753L293.757 106.223H293.759C293.79 106.226 293.888 106.305 293.973 106.44C294.06 106.577 294.2 106.747 294.3 106.792C294.361 106.83 294.396 106.873 294.399 106.888C294.4 106.906 294.408 106.92 294.409 106.922C294.494 107.086 296.374 109.274 296.849 109.77L296.85 109.771C296.954 109.875 297.015 109.97 297.02 109.996C297.02 110.003 297.021 110.009 297.022 110.015C297.034 110.076 297.096 110.154 297.152 110.203L297.153 110.205C297.162 110.212 297.181 110.225 297.207 110.225C297.253 110.225 297.275 110.189 297.283 110.174C297.363 110.016 297.374 108.752 297.387 103.121C297.405 97.5431 297.422 96.2982 297.481 96.0804H297.482C297.574 96.1229 297.803 96.2614 298.044 96.4406L298.045 96.4413C298.31 96.6312 298.582 96.805 298.666 96.8226C298.673 96.8241 298.68 96.8251 298.688 96.8251C298.732 96.8251 298.756 96.7936 298.767 96.776C298.801 96.7174 298.81 96.5834 298.81 96.4286C298.81 96.1473 298.777 95.7218 298.718 95.2716L298.718 95.2706C298.7 95.1466 298.698 95.0561 298.703 95.0109L298.705 95.0111C298.873 95.0465 299.423 95.2374 299.486 95.2836C299.61 95.3776 300.362 95.6332 300.482 95.6334C300.483 95.6331 300.484 95.6334 300.485 95.6334C300.493 95.6334 300.516 95.6324 300.536 95.6166L300.494 95.5646L300.541 95.6115C300.566 95.5869 300.564 95.5541 300.564 95.547C300.562 95.4938 300.521 95.3895 300.474 95.2943L300.472 95.2914C300.411 95.1835 300.311 94.8854 300.246 94.631C300.18 94.368 300.078 94.0175 300.011 93.8448C299.891 93.5211 299.918 93.4725 299.976 93.451C300.007 93.4393 300.057 93.433 300.13 93.433C300.194 93.433 300.274 93.4381 300.371 93.4471C300.621 93.4754 300.834 93.5161 300.87 93.5367C300.874 93.5391 300.877 93.5416 300.88 93.5431C300.991 93.6071 301.617 93.6608 301.923 93.6608C302.004 93.6608 302.08 93.6576 302.119 93.6437C302.121 93.6425 302.177 93.6258 302.177 93.5697C302.177 93.5585 302.174 93.5482 302.173 93.5431C302.155 93.4847 302.037 93.2884 301.912 93.0897C301.788 92.9007 301.69 92.7357 301.669 92.6866H301.667C301.667 92.6761 301.665 92.6676 301.663 92.6632C301.646 92.6017 301.514 92.3724 301.366 92.1434L301.365 92.1425C301.222 91.9213 301.111 91.7255 301.088 91.6656L301.086 91.6659C301.13 91.6305 301.34 91.5944 302.154 91.5033C302.587 91.4528 303.029 91.3718 303.135 91.3228L303.137 91.3218C303.168 91.3064 303.208 91.2859 303.232 91.2544C303.252 91.2295 303.261 91.199 303.257 91.1648C303.254 91.1458 303.248 91.1273 303.239 91.1104C303.19 91.0123 303.013 90.8481 302.658 90.5214C302.355 90.2443 302.123 89.9972 302.064 89.9088H302.062C302.103 89.8798 302.205 89.8292 302.33 89.7909C302.507 89.7465 302.692 89.6715 302.753 89.6276C302.793 89.5988 303.021 89.5071 303.271 89.4336C303.506 89.3679 303.671 89.303 303.717 89.2175C303.731 89.1924 303.736 89.1628 303.727 89.1326C303.726 89.1282 303.725 89.1238 303.723 89.1199C303.699 89.0545 303.643 88.9941 303.581 88.9785C303.574 88.9763 303.565 88.9751 303.557 88.9746L303.555 88.9751C303.517 88.9673 303.367 88.8821 303.19 88.7683C303.012 88.6423 302.726 88.474 302.563 88.3922C302.237 88.2259 301.697 87.8448 301.602 87.7347L301.6 87.735C301.653 87.6498 301.943 87.3874 302.181 87.2422C302.561 87.0115 303.434 86.2598 303.503 86.1023L303.443 86.0762L303.441 86.0764C303.441 86.0762 303.441 86.0759 303.441 86.0754L303.503 86.1023C303.506 86.0947 303.522 86.0593 303.501 86.0242C303.498 86.0188 303.494 86.0137 303.489 86.0095C303.482 86.0019 303.474 85.9971 303.47 85.9946C303.4 85.9534 303.022 85.8552 302.612 85.7729C302.238 85.6901 301.929 85.6121 301.846 85.5752H301.844C301.855 85.4968 302.003 85.2441 302.217 85.01L302.219 85.0083C302.305 84.9077 302.51 84.6733 302.67 84.4922L302.961 84.157C302.978 84.1377 302.982 84.1106 302.972 84.0869C302.962 84.0635 302.94 84.0476 302.914 84.0461L302.136 84.0024C301.713 83.9733 301.188 83.9514 300.967 83.9517C300.839 83.9517 300.733 83.946 300.671 83.939H300.669C300.713 83.8328 300.815 83.6011 300.94 83.3413C301.108 82.9839 301.317 82.5369 301.406 82.3367C301.489 82.1648 301.54 82.0007 301.526 81.9231C301.523 81.907 301.513 81.8733 301.479 81.8557C301.476 81.854 301.473 81.8528 301.472 81.8523L301.467 81.8508C301.461 81.8484 301.455 81.8477 301.451 81.8472C301.441 81.8457 301.43 81.8452 301.42 81.8452C301.209 81.8452 300.063 82.0571 299.931 82.1389C299.928 82.1409 299.924 82.1433 299.921 82.1455C299.849 82.1926 299.57 82.2429 299.398 82.2429C299.373 82.2429 299.354 82.2417 299.341 82.2405H299.339C299.354 81.9712 299.506 81.0603 299.551 80.9507C299.626 80.7732 299.712 80.2039 299.675 80.0833C299.672 80.0741 299.661 80.0413 299.628 80.0271L299.627 80.0264C299.623 80.0247 299.618 80.0229 299.613 80.022L299.593 80.0205C299.588 80.0208 299.583 80.0215 299.579 80.0222C299.444 80.0488 298.341 80.6169 298.14 80.7607C298.075 80.8083 298.018 80.8364 297.984 80.8469C297.97 80.7348 297.954 80.4011 297.954 80.0073C297.954 79.5449 297.931 79.1733 297.882 79.0837C297.878 79.0742 297.868 79.0596 297.852 79.0488C297.836 79.0381 297.818 79.0332 297.802 79.0315C297.798 79.0312 297.791 79.0305 297.786 79.0305C297.701 79.0305 297.569 79.1055 297.46 79.1899L297.459 79.1912C297.101 79.4834 296.084 80.3335 295.893 80.4946L295.89 80.4973C295.825 80.5591 295.797 80.582 295.783 80.5891C295.776 80.5823 295.763 80.5664 295.736 80.5295C295.693 80.4668 295.571 80.1711 295.476 79.8569C295.386 79.5644 295.283 79.2737 295.245 79.2158C295.244 79.2148 295.243 79.2139 295.243 79.2131C295.22 79.1784 295.135 78.9648 295.054 78.7212C294.991 78.5137 294.899 78.3089 294.821 78.2559C294.809 78.2472 294.789 78.2366 294.764 78.2366C294.75 78.2366 294.736 78.2402 294.725 78.2444C294.643 78.2756 294.535 78.4215 294.458 78.5627C294.371 78.7219 294.291 78.8552 294.272 78.8762C294.27 78.8779 294.269 78.8799 294.268 78.8806C294.236 78.9175 294.104 79.1233 293.972 79.3389C293.826 79.586 293.776 79.6557 293.751 79.6667C293.744 79.6644 293.73 79.6553 293.697 79.6235L293.695 79.6228C293.63 79.5637 293.59 79.4902 293.587 79.4685C293.587 79.3796 293.508 79.304 293.44 79.2703L293.434 79.2676C293.393 79.2524 293.368 79.2141 293.368 79.1919C293.368 79.186 293.368 79.1804 293.367 79.1763C293.356 79.0962 293.231 78.8796 293.101 78.6948C292.972 78.511 292.873 78.3367 292.859 78.2893C292.859 78.2391 292.839 78.1846 292.795 78.1523C292.773 78.1364 292.747 78.1274 292.719 78.1274Z" fill="#F44336"/>
<path d="M293.826 82.2393C293.109 82.2393 292.34 82.3303 292.025 82.498C291.906 82.5574 291.79 82.5991 291.758 82.5991L291.756 82.5996C291.64 82.6015 291.113 82.8321 291.035 82.9092C291.013 82.9275 290.881 83.0008 290.724 83.0796C290.332 83.2754 288.997 84.6109 288.801 85.0023C288.722 85.1612 288.649 85.2926 288.63 85.3138C288.627 85.3172 288.624 85.3207 288.623 85.3229C288.589 85.3663 288.495 85.565 288.406 85.7701C288.394 85.7977 288.359 85.8796 288.346 85.9081C288.307 85.9982 288.327 85.9527 288.289 86.0404C288.236 86.163 288.19 86.2698 288.172 86.3197C287.962 86.8085 287.884 88.6215 288.039 89.3058C288.135 89.7492 288.443 90.5279 288.652 90.8558C288.738 90.992 288.853 91.2005 288.91 91.3214L288.91 91.3224C289.107 91.7245 290.314 92.8546 290.81 93.1141C291.048 93.2396 291.312 93.3566 291.394 93.3617C291.396 93.3617 291.4 93.3617 291.402 93.3617C291.447 93.3617 291.468 93.3847 291.469 93.3888C291.476 93.4086 291.489 93.4221 291.497 93.4291C291.624 93.5448 292.635 93.7987 292.945 93.7987C293.065 93.7987 293.156 93.8243 293.173 93.8402C293.183 93.856 293.196 93.8657 293.204 93.871C293.277 93.9159 293.511 93.944 293.738 93.944C293.966 93.944 294.2 93.9159 294.272 93.871C294.281 93.8659 294.294 93.8569 294.304 93.8417C294.324 93.8241 294.428 93.7987 294.568 93.7987C294.99 93.7987 295.888 93.5396 296.39 93.274C297.5 92.7003 298.656 91.5103 299.035 90.5533C299.11 90.3658 299.183 90.2034 299.209 90.1754L299.214 90.17C299.377 89.9659 299.527 88.9051 299.535 88.1268C299.534 87.1477 299.432 86.4809 299.179 85.9292C299.089 85.727 299.019 85.5547 299.011 85.5127C299.011 85.5027 299.008 85.4941 299.007 85.4885C298.991 85.4221 298.871 85.2253 298.744 85.0388L298.744 85.0378C298.622 84.8584 298.525 84.7068 298.502 84.6609H298.5C298.498 84.6424 298.488 84.6274 298.487 84.6252C298.454 84.5766 298.212 84.3226 297.935 84.0457C297.269 83.3867 296.511 82.8625 295.886 82.6467C295.633 82.5573 295.412 82.4733 295.377 82.4504L295.34 82.5061L295.374 82.4485C295.373 82.4481 295.371 82.4467 295.368 82.4453C295.313 82.4167 295.073 82.3585 294.85 82.3167C294.561 82.2639 294.197 82.2393 293.826 82.2393Z" fill="#F44336"/>
<path d="M302.063 86.429L302.127 86.416C302.126 86.4131 302.126 86.4102 302.125 86.408L302.063 86.429L302.061 86.4285C302.061 86.4282 302.061 86.4287 302.061 86.4285L302.063 86.429ZM293.597 94.4039C294.281 94.4037 295.447 94.2521 295.792 94.1022L295.794 94.1017C295.83 94.0863 295.869 94.0704 295.924 94.0472C295.995 94.0177 296.09 93.9784 296.177 93.9425C296.251 93.9125 296.344 93.8739 296.413 93.8463C296.755 93.7034 297.107 93.4952 297.746 93.0521C298.474 92.5443 299.549 90.9564 299.793 90.0316C299.837 89.8463 299.924 89.5482 299.99 89.3568C300.066 89.1073 300.088 88.7894 300.066 87.9974C300.044 87.1054 300.008 86.8872 299.836 86.3713C299.38 85.0212 298.681 83.9919 297.643 83.1716C297.366 82.9497 297.125 82.7815 297.072 82.7634L297.07 82.7632C297.067 82.7629 297.064 82.7624 297.061 82.7622C296.998 82.7505 296.812 82.6514 296.639 82.5515C296.448 82.4383 296.102 82.2869 295.867 82.2158C295.625 82.1504 295.367 82.0544 295.288 82.0151C295.098 81.9179 294.465 81.8491 293.831 81.8496C293.555 81.8496 293.282 81.8633 293.056 81.8916L293.053 81.8918C292.67 81.9341 292.347 81.9939 292.286 82.019L292.284 82.0188C292.233 82.0578 292.039 82.1252 291.864 82.1743C291.515 82.2724 290.57 82.7241 290.466 82.8247L290.465 82.8245C290.46 82.8335 290.455 82.8401 290.451 82.8452C290.411 82.8914 290.269 82.9783 290.139 83.05L290.136 83.0515C289.852 83.1902 288.705 84.359 288.536 84.6764C288.477 84.7858 288.362 85.0094 288.282 85.1703C287.735 86.2155 287.584 86.8678 287.584 88.1974C287.592 89.1127 287.687 89.7711 287.871 90.2103C288.096 90.7647 288.288 91.1835 288.33 91.2433L288.328 91.243L288.33 91.2443C288.332 91.2457 288.332 91.2457 288.334 91.2479C288.364 91.2811 288.426 91.3905 288.48 91.4928L288.481 91.494C288.759 92.0348 289.943 93.2176 290.484 93.495L290.485 93.4955C290.587 93.5497 290.696 93.6107 290.73 93.6412C290.731 93.6427 290.731 93.6429 290.732 93.6434C290.778 93.6795 291.178 93.8595 291.765 94.1095C291.883 94.1513 292.22 94.2303 292.516 94.2736C292.7 94.3002 292.855 94.3238 293.01 94.3473C293.103 94.3617 293.178 94.3729 293.225 94.3795C293.242 94.382 293.228 94.3802 293.244 94.3822L293.246 94.3824C293.33 94.3971 293.45 94.4039 293.597 94.4039ZM292.8 98.1993C292.77 98.1993 292.746 98.1859 292.729 98.1715C292.683 98.1317 292.66 98.057 292.66 97.9867C292.66 97.9442 292.65 97.9149 292.644 97.903H292.642C292.62 97.8946 292.608 97.8783 292.606 97.8756C292.556 97.8158 292.461 97.559 292.372 97.2792L292.371 97.2775C292.28 96.9635 292.188 96.715 292.161 96.6788L292.16 96.6786C292.158 96.6774 292.156 96.6759 292.154 96.6742C292.103 96.6229 292.046 96.4676 292.007 96.3309C291.952 96.1309 291.91 96.1053 291.89 96.1053C291.852 96.1053 291.777 96.1522 291.632 96.3077C291.387 96.5667 290.39 97.4716 290.269 97.5348C290.266 97.536 290.25 97.5453 290.23 97.5453C290.174 97.5453 290.158 97.4847 290.16 97.4847C290.14 97.4054 290.108 97.0118 290.082 96.5577C290.053 96.0331 289.994 95.5492 289.951 95.4628L289.948 95.4581L289.897 95.3312L289.417 95.5936L289.415 95.5946C288.706 95.9777 288.106 96.2836 288.009 96.3058C288.007 96.3063 288.006 96.3065 288.004 96.3068H288.003L287.988 96.3085L287.986 96.3082L287.947 96.296C287.92 96.2765 287.916 96.2428 287.916 96.2428C287.904 96.1654 287.943 95.7811 288.008 95.3439C288.038 95.1403 288.064 94.9655 288.088 94.8058C288.102 94.7096 288.119 94.5944 288.127 94.5377C288.132 94.5099 288.135 94.486 288.138 94.4672C287.984 94.4764 287.633 94.5629 287.561 94.6136C287.558 94.6158 287.554 94.6185 287.552 94.62C287.451 94.683 286.581 94.9208 286.434 94.9257H286.432L286.428 94.9261H286.427L286.417 94.9257C286.364 94.9178 286.35 94.8691 286.347 94.8549C286.341 94.8237 286.344 94.7833 286.35 94.746C286.369 94.6146 286.438 94.3988 286.518 94.2767C286.561 94.1957 286.673 93.9428 286.758 93.7081C286.845 93.4689 286.949 93.2357 286.983 93.1842L286.989 93.1769C287.036 93.1124 287.219 92.5795 287.261 92.4027H287.259C287.162 92.3905 286.935 92.3785 286.66 92.3785C286.28 92.3785 285.674 92.3571 285.309 92.3351H285.308L284.653 92.2845C284.628 92.2826 284.606 92.2665 284.596 92.2435C284.587 92.2201 284.591 92.1935 284.607 92.1744L285.16 91.5262C285.466 91.1768 285.691 90.8546 285.705 90.7924C285.7 90.7641 285.65 90.7197 285.32 90.6447C284.407 90.438 284.117 90.3724 284.044 90.2936C284.033 90.2816 284.024 90.2679 284.019 90.2518L284.017 90.2469C284.01 90.2179 284.022 90.193 284.026 90.1862C284.088 90.0644 284.69 89.5638 284.87 89.4845C284.983 89.4369 285.591 88.9428 285.724 88.8031L285.722 88.8029C285.688 88.7756 285.624 88.7335 285.545 88.6962L285.544 88.6954C285.434 88.6405 285.202 88.5155 284.963 88.3866L284.792 88.2943C284.791 88.2941 284.789 88.2926 284.787 88.2914C284.511 88.1322 284.151 87.9381 283.995 87.8676L283.993 87.8663L283.702 87.7208C283.678 87.7091 283.664 87.6849 283.665 87.6588C283.665 87.6327 283.681 87.6095 283.705 87.5995L284.069 87.4462L284.079 87.4423C284.21 87.3859 284.146 87.4132 284.295 87.3497C284.338 87.3312 284.53 87.2489 284.576 87.2294C284.671 87.1884 284.756 87.1517 284.833 87.1185C285.051 87.0238 285.338 86.9061 285.472 86.8612C285.763 86.7516 285.782 86.7028 285.759 86.6427C285.729 86.5614 285.617 86.4398 285.396 86.2313C284.582 85.4691 284.347 85.254 284.333 85.1334C284.33 85.1092 284.334 85.0873 284.343 85.0682C284.351 85.0504 284.362 85.0365 284.371 85.026C284.375 85.0208 284.381 85.0155 284.385 85.0118C284.464 84.9457 284.765 84.891 285.056 84.8639H285.057L285.058 84.8634C285.791 84.8028 286.002 84.7521 286.03 84.7086H286.028C286.012 84.6542 285.901 84.4603 285.75 84.2482C285.603 84.0477 285.471 83.8405 285.451 83.7794C285.449 83.7745 285.447 83.7638 285.446 83.7523L285.444 83.7521C285.429 83.7164 285.366 83.614 285.278 83.5009C285.187 83.384 285.105 83.2621 285.088 83.214C285.086 83.2088 285.082 83.1971 285.082 83.1835C285.082 83.1268 285.139 83.1107 285.14 83.1107C285.184 83.0968 285.29 83.0931 285.415 83.0931C285.954 83.0929 287.177 83.1681 287.315 83.2255C287.32 83.2277 287.33 83.2325 287.339 83.2399L287.344 83.2443C287.362 83.2608 287.459 83.2902 287.573 83.2902C287.66 83.2902 287.684 83.2865 287.693 83.2814L287.691 83.2811C287.692 83.2777 287.693 83.2704 287.693 83.2567C287.693 83.2186 287.684 83.1593 287.667 83.0626C287.594 82.6329 287.428 81.9864 287.345 81.8217L287.345 81.8207C287.273 81.6715 287.063 80.8898 287.066 80.774C287.065 80.7708 287.066 80.7338 287.095 80.712C287.114 80.6981 287.134 80.6967 287.141 80.6967C287.142 80.6967 287.143 80.6967 287.143 80.6967C287.145 80.6967 287.148 80.6967 287.149 80.6967C287.261 80.7023 288.001 80.9638 288.094 81.0333C288.098 81.0363 288.104 81.0409 288.109 81.0475C288.148 81.0817 288.41 81.1822 288.783 81.2897L288.862 81.3102L288.815 80.4918L288.815 80.4904C288.796 80.0443 288.792 79.6449 288.818 79.5619C288.819 79.5568 288.835 79.5062 288.886 79.504H288.889C288.899 79.5042 288.909 79.5062 288.914 79.5074C288.973 79.5233 289.152 79.6276 289.32 79.7482L289.337 79.7599L289.398 79.8007C289.398 79.8007 289.447 79.8334 289.454 79.8378C289.853 80.1052 289.985 80.1909 290.045 80.2183H290.047C290.086 79.834 290.11 77.5725 290.115 73.1855L290.133 66.073C290.133 66.0447 290.151 66.0198 290.178 66.0103C290.185 66.0076 290.193 66.0063 290.2 66.0063C290.22 66.0063 290.239 66.0149 290.252 66.0305L290.703 66.5764C290.95 66.8738 291.271 67.2449 291.415 67.4036L291.416 67.4048C291.459 67.4548 291.543 67.5522 291.637 67.6619C291.793 67.8433 292.02 68.1082 292.228 68.3481C292.283 68.4121 292.301 68.4333 292.356 68.4963L292.357 68.4973C292.729 68.9419 293.193 69.4848 293.39 69.7114C293.581 69.9307 293.772 70.0901 293.823 70.103L293.82 70.1028L293.825 70.1033H293.827C293.857 70.1001 293.956 70.0208 294.04 69.8867C294.127 69.749 294.267 69.5793 294.367 69.5339C294.428 69.496 294.463 69.4529 294.467 69.4385C294.467 69.4202 294.476 69.4053 294.476 69.4043C294.561 69.2403 296.441 67.0513 296.915 66.5552L296.916 66.5542C297.02 66.4499 297.081 66.3546 297.086 66.3289C297.086 66.3223 297.087 66.3157 297.088 66.3103C297.099 66.249 297.161 66.1707 297.218 66.1216L297.219 66.1204C297.228 66.1128 297.247 66.0996 297.273 66.0996C297.319 66.0996 297.341 66.1362 297.349 66.1506C297.429 66.3088 297.44 67.5731 297.456 73.2039C297.477 78.7816 297.494 80.0264 297.553 80.2444L297.555 80.2441C297.647 80.2017 297.875 80.0632 298.116 79.8838L298.117 79.8833C298.382 79.6929 298.654 79.5193 298.738 79.5015C298.745 79.5 298.752 79.499 298.76 79.499C298.804 79.499 298.828 79.5305 298.839 79.5481C298.873 79.6067 298.882 79.7407 298.882 79.8955C298.882 80.1765 298.85 80.6025 298.791 81.0525L298.791 81.0535C298.773 81.1775 298.771 81.2678 298.776 81.3132H298.778C298.946 81.2773 299.496 81.0862 299.559 81.0403C299.683 80.9461 300.435 80.6904 300.555 80.6899C300.556 80.6901 300.557 80.6899 300.558 80.6899C300.565 80.6899 300.588 80.6909 300.608 80.707L300.566 80.7593L300.614 80.7119C300.639 80.7368 300.637 80.7695 300.637 80.7766C300.634 80.8296 300.594 80.9341 300.546 81.0293L300.545 81.0322C300.484 81.1401 300.384 81.4382 300.319 81.6926C300.253 81.9556 300.151 82.3061 300.084 82.4788C299.965 82.8025 299.992 82.8511 300.05 82.8726C300.081 82.8843 300.13 82.8909 300.203 82.8909C300.268 82.8909 300.348 82.8857 300.445 82.8765C300.695 82.8477 300.907 82.8071 300.944 82.7866C300.947 82.7839 300.95 82.782 300.953 82.7803C301.065 82.7164 301.691 82.6619 301.997 82.6619C302.077 82.6619 302.153 82.665 302.192 82.679C302.195 82.6802 302.25 82.6968 302.25 82.7529C302.25 82.7642 302.248 82.7744 302.246 82.7793C302.229 82.8381 302.111 83.0342 301.986 83.2329L301.985 83.2339C301.861 83.4226 301.764 83.5869 301.743 83.6365L301.741 83.6362C301.741 83.6467 301.739 83.6553 301.737 83.6597C301.72 83.7217 301.588 83.9504 301.44 84.1797C301.297 84.4011 301.186 84.5977 301.162 84.6572H301.16C301.204 84.6926 301.415 84.7288 302.228 84.8193C302.662 84.8696 303.103 84.9502 303.21 84.9993L303.212 85.0002C303.243 85.0158 303.282 85.0361 303.307 85.0676C303.326 85.0925 303.336 85.1233 303.332 85.1572C303.329 85.1762 303.322 85.1946 303.314 85.2117C303.265 85.3101 303.088 85.4741 302.733 85.8013C302.431 86.0788 302.198 86.3252 302.139 86.4141L302.137 86.4138C302.179 86.4429 302.281 86.4934 302.406 86.5317C302.582 86.5759 302.767 86.6509 302.828 86.6948C302.868 86.7236 303.097 86.8149 303.346 86.8884C303.581 86.9538 303.747 87.0188 303.793 87.1042C303.806 87.1294 303.812 87.1589 303.803 87.1892C303.802 87.1938 303.8 87.198 303.799 87.2019C303.774 87.2673 303.719 87.3276 303.657 87.3433C303.65 87.3458 303.641 87.3467 303.633 87.3472L303.631 87.3469C303.593 87.3547 303.443 87.4399 303.266 87.5535C303.088 87.6795 302.802 87.8486 302.639 87.9301C302.313 88.0967 301.774 88.4781 301.678 88.5883L301.676 88.588C301.729 88.6735 302.02 88.9349 302.258 89.0802C302.638 89.3109 303.511 90.0623 303.58 90.2195L303.52 90.2456L303.518 90.2451C303.518 90.2458 303.519 90.2461 303.519 90.2463L303.58 90.2195C303.583 90.227 303.599 90.2628 303.578 90.2979C303.575 90.3033 303.571 90.3083 303.567 90.3123C303.559 90.3198 303.551 90.3247 303.547 90.3274C303.477 90.3684 303.1 90.4668 302.689 90.5494C302.315 90.6324 302.007 90.7106 301.923 90.7477L301.921 90.7474C301.933 90.826 302.08 91.0785 302.295 91.3126L302.297 91.3143C302.383 91.4147 302.588 91.6493 302.748 91.8302L303.039 92.1653C303.056 92.1843 303.06 92.2114 303.05 92.2351C303.041 92.2585 303.018 92.2744 302.993 92.2759L302.214 92.3199C301.791 92.3495 301.266 92.3715 301.045 92.3717C300.917 92.3717 300.811 92.3776 300.749 92.3846L300.747 92.3844C300.791 92.4906 300.894 92.7223 301.018 92.9821C301.186 93.3388 301.396 93.786 301.485 93.9862C301.568 94.1578 301.619 94.3221 301.605 94.3998C301.602 94.4159 301.593 94.4496 301.559 94.4672C301.555 94.4691 301.552 94.4701 301.552 94.4706L301.547 94.472C301.54 94.4745 301.534 94.4753 301.53 94.476C301.52 94.4777 301.509 94.4777 301.499 94.4777C301.289 94.4777 300.143 94.2667 300.01 94.1849C300.007 94.1829 300.003 94.1805 300 94.1781C299.928 94.1313 299.649 94.0807 299.477 94.0809C299.452 94.0809 299.434 94.0821 299.42 94.0836L299.418 94.0834C299.434 94.3527 299.586 95.2633 299.63 95.3732C299.705 95.5507 299.792 96.12 299.755 96.2404C299.752 96.2494 299.741 96.2823 299.708 96.2968C299.704 96.2985 299.698 96.3004 299.693 96.3016L299.673 96.3031C299.669 96.3028 299.663 96.3021 299.659 96.3014C299.524 96.275 298.421 95.7071 298.22 95.5636C298.155 95.516 298.098 95.4882 298.064 95.4777C298.05 95.5897 298.034 95.9235 298.034 96.3173C298.035 96.7797 298.012 97.151 297.963 97.2408C297.958 97.2501 297.949 97.265 297.932 97.2758C297.916 97.2865 297.899 97.2914 297.883 97.2931C297.878 97.2933 297.872 97.2941 297.867 97.2941C297.782 97.2941 297.65 97.2191 297.541 97.1349L297.54 97.1337C297.181 96.8414 296.164 95.9916 295.973 95.8307L295.97 95.828C295.905 95.7662 295.877 95.7435 295.863 95.7362C295.856 95.7433 295.843 95.7592 295.816 95.796C295.773 95.8588 295.652 96.1547 295.557 96.4689C295.466 96.7616 295.364 97.0521 295.325 97.11C295.324 97.111 295.324 97.1117 295.323 97.1127C295.3 97.1471 295.216 97.3611 295.135 97.6049C295.072 97.8126 294.98 98.017 294.902 98.0702C294.89 98.0787 294.87 98.0892 294.845 98.0892C294.831 98.0892 294.817 98.0856 294.806 98.0817C294.724 98.0502 294.616 97.9047 294.539 97.7633C294.452 97.6041 294.371 97.4708 294.353 97.4501C294.351 97.4484 294.349 97.4462 294.349 97.4457C294.316 97.4088 294.185 97.2028 294.053 96.9874C293.906 96.7406 293.856 96.6705 293.831 96.6595C293.825 96.662 293.81 96.6713 293.777 96.7028L293.776 96.7037C293.71 96.7628 293.67 96.8363 293.667 96.858C293.667 96.9469 293.588 97.0223 293.521 97.0563L293.514 97.0592C293.474 97.0741 293.449 97.1124 293.449 97.1349C293.449 97.1405 293.448 97.1461 293.448 97.1505C293.436 97.2303 293.312 97.4471 293.182 97.632C293.053 97.8158 292.954 97.9904 292.94 98.0375C292.94 98.0875 292.92 98.1422 292.876 98.1744C292.854 98.1901 292.829 98.1993 292.8 98.1993Z" fill="#F44336"/>
<defs>
<filter id="filter0_d_24_218" x="94.2041" y="0" width="28.0339" height="28.0684" filterUnits="userSpaceOnUse" color-interpolation-filters="sRGB">
<feFlood flood-opacity="0" result="BackgroundImageFix"/>
<feColorMatrix in="SourceAlpha" type="matrix" values="0 0 0 0 0 0 0 0 0 0 0 0 0 0 0 0 0 0 127 0" result="hardAlpha"/>
<feOffset dy="4"/>
<feGaussianBlur stdDeviation="2"/>
<feComposite in2="hardAlpha" operator="out"/>
<feColorMatrix type="matrix" values="0 0 0 0 0 0 0 0 0 0 0 0 0 0 0 0 0 0 0.25 0"/>
<feBlend mode="normal" in2="BackgroundImageFix" result="effect1_dropShadow_24_218"/>
<feBlend mode="normal" in="SourceGraphic" in2="effect1_dropShadow_24_218" result="shape"/>
</filter>
<filter id="filter1_d_24_218" x="97.9001" y="3.50635" width="28.2996" height="30.2615" filterUnits="userSpaceOnUse" color-interpolation-filters="sRGB">
<feFlood flood-opacity="0" result="BackgroundImageFix"/>
<feColorMatrix in="SourceAlpha" type="matrix" values="0 0 0 0 0 0 0 0 0 0 0 0 0 0 0 0 0 0 127 0" result="hardAlpha"/>
<feOffset dy="4"/>
<feGaussianBlur stdDeviation="2"/>
<feComposite in2="hardAlpha" operator="out"/>
<feColorMatrix type="matrix" values="0 0 0 0 0 0 0 0 0 0 0 0 0 0 0 0 0 0 0.25 0"/>
<feBlend mode="normal" in2="BackgroundImageFix" result="effect1_dropShadow_24_218"/>
<feBlend mode="normal" in="SourceGraphic" in2="effect1_dropShadow_24_218" result="shape"/>
</filter>
<filter id="filter2_d_24_218" x="93.1021" y="19.1616" width="21.3018" height="64.3623" filterUnits="userSpaceOnUse" color-interpolation-filters="sRGB">
<feFlood flood-opacity="0" result="BackgroundImageFix"/>
<feColorMatrix in="SourceAlpha" type="matrix" values="0 0 0 0 0 0 0 0 0 0 0 0 0 0 0 0 0 0 127 0" result="hardAlpha"/>
<feOffset dy="4"/>
<feGaussianBlur stdDeviation="2"/>
<feComposite in2="hardAlpha" operator="out"/>
<feColorMatrix type="matrix" values="0 0 0 0 0 0 0 0 0 0 0 0 0 0 0 0 0 0 0.25 0"/>
<feBlend mode="normal" in2="BackgroundImageFix" result="effect1_dropShadow_24_218"/>
<feBlend mode="normal" in="SourceGraphic" in2="effect1_dropShadow_24_218" result="shape"/>
</filter>
<filter id="filter3_d_24_218" x="57.8608" y="67.449" width="70.1267" height="94.5813" filterUnits="userSpaceOnUse" color-interpolation-filters="sRGB">
<feFlood flood-opacity="0" result="BackgroundImageFix"/>
<feColorMatrix in="SourceAlpha" type="matrix" values="0 0 0 0 0 0 0 0 0 0 0 0 0 0 0 0 0 0 127 0" result="hardAlpha"/>
<feOffset dy="4"/>
<feGaussianBlur stdDeviation="2"/>
<feComposite in2="hardAlpha" operator="out"/>
<feColorMatrix type="matrix" values="0 0 0 0 0 0 0 0 0 0 0 0 0 0 0 0 0 0 0.25 0"/>
<feBlend mode="normal" in2="BackgroundImageFix" result="effect1_dropShadow_24_218"/>
<feBlend mode="normal" in="SourceGraphic" in2="effect1_dropShadow_24_218" result="shape"/>
</filter>
<filter id="filter4_d_24_218" x="70.4888" y="19.9253" width="42.8472" height="68.9404" filterUnits="userSpaceOnUse" color-interpolation-filters="sRGB">
<feFlood flood-opacity="0" result="BackgroundImageFix"/>
<feColorMatrix in="SourceAlpha" type="matrix" values="0 0 0 0 0 0 0 0 0 0 0 0 0 0 0 0 0 0 127 0" result="hardAlpha"/>
<feOffset dy="4"/>
<feGaussianBlur stdDeviation="2"/>
<feComposite in2="hardAlpha" operator="out"/>
<feColorMatrix type="matrix" values="0 0 0 0 0 0 0 0 0 0 0 0 0 0 0 0 0 0 0.25 0"/>
<feBlend mode="normal" in2="BackgroundImageFix" result="effect1_dropShadow_24_218"/>
<feBlend mode="normal" in="SourceGraphic" in2="effect1_dropShadow_24_218" result="shape"/>
</filter>
<filter id="filter5_d_24_218" x="99.8445" y="71.6885" width="14.5798" height="22.7693" filterUnits="userSpaceOnUse" color-interpolation-filters="sRGB">
<feFlood flood-opacity="0" result="BackgroundImageFix"/>
<feColorMatrix in="SourceAlpha" type="matrix" values="0 0 0 0 0 0 0 0 0 0 0 0 0 0 0 0 0 0 127 0" result="hardAlpha"/>
<feOffset dy="4"/>
<feGaussianBlur stdDeviation="2"/>
<feComposite in2="hardAlpha" operator="out"/>
<feColorMatrix type="matrix" values="0 0 0 0 0 0 0 0 0 0 0 0 0 0 0 0 0 0 0.25 0"/>
<feBlend mode="normal" in2="BackgroundImageFix" result="effect1_dropShadow_24_218"/>
<feBlend mode="normal" in="SourceGraphic" in2="effect1_dropShadow_24_218" result="shape"/>
</filter>
<filter id="filter6_d_24_218" x="88.4705" y="126.758" width="36.0962" height="22.886" filterUnits="userSpaceOnUse" color-interpolation-filters="sRGB">
<feFlood flood-opacity="0" result="BackgroundImageFix"/>
<feColorMatrix in="SourceAlpha" type="matrix" values="0 0 0 0 0 0 0 0 0 0 0 0 0 0 0 0 0 0 127 0" result="hardAlpha"/>
<feOffset dy="4"/>
<feGaussianBlur stdDeviation="2"/>
<feComposite in2="hardAlpha" operator="out"/>
<feColorMatrix type="matrix" values="0 0 0 0 0 0 0 0 0 0 0 0 0 0 0 0 0 0 0.25 0"/>
<feBlend mode="normal" in2="BackgroundImageFix" result="effect1_dropShadow_24_218"/>
<feBlend mode="normal" in="SourceGraphic" in2="effect1_dropShadow_24_218" result="shape"/>
</filter>
<filter id="filter7_d_24_218" x="43.4509" y="83.1528" width="62.1821" height="52.5925" filterUnits="userSpaceOnUse" color-interpolation-filters="sRGB">
<feFlood flood-opacity="0" result="BackgroundImageFix"/>
<feColorMatrix in="SourceAlpha" type="matrix" values="0 0 0 0 0 0 0 0 0 0 0 0 0 0 0 0 0 0 127 0" result="hardAlpha"/>
<feOffset dy="4"/>
<feGaussianBlur stdDeviation="2"/>
<feComposite in2="hardAlpha" operator="out"/>
<feColorMatrix type="matrix" values="0 0 0 0 0 0 0 0 0 0 0 0 0 0 0 0 0 0 0.25 0"/>
<feBlend mode="normal" in2="BackgroundImageFix" result="effect1_dropShadow_24_218"/>
<feBlend mode="normal" in="SourceGraphic" in2="effect1_dropShadow_24_218" result="shape"/>
</filter>
<filter id="filter8_d_24_218" x="69.2007" y="84.8826" width="18.8884" height="15.9646" filterUnits="userSpaceOnUse" color-interpolation-filters="sRGB">
<feFlood flood-opacity="0" result="BackgroundImageFix"/>
<feColorMatrix in="SourceAlpha" type="matrix" values="0 0 0 0 0 0 0 0 0 0 0 0 0 0 0 0 0 0 127 0" result="hardAlpha"/>
<feOffset dy="4"/>
<feGaussianBlur stdDeviation="2"/>
<feComposite in2="hardAlpha" operator="out"/>
<feColorMatrix type="matrix" values="0 0 0 0 0 0 0 0 0 0 0 0 0 0 0 0 0 0 0.25 0"/>
<feBlend mode="normal" in2="BackgroundImageFix" result="effect1_dropShadow_24_218"/>
<feBlend mode="normal" in="SourceGraphic" in2="effect1_dropShadow_24_218" result="shape"/>
</filter>
<filter id="filter9_d_24_218" x="72.3596" y="78.0898" width="17.0288" height="19.5115" filterUnits="userSpaceOnUse" color-interpolation-filters="sRGB">
<feFlood flood-opacity="0" result="BackgroundImageFix"/>
<feColorMatrix in="SourceAlpha" type="matrix" values="0 0 0 0 0 0 0 0 0 0 0 0 0 0 0 0 0 0 127 0" result="hardAlpha"/>
<feOffset dy="4"/>
<feGaussianBlur stdDeviation="2"/>
<feComposite in2="hardAlpha" operator="out"/>
<feColorMatrix type="matrix" values="0 0 0 0 0 0 0 0 0 0 0 0 0 0 0 0 0 0 0.25 0"/>
<feBlend mode="normal" in2="BackgroundImageFix" result="effect1_dropShadow_24_218"/>
<feBlend mode="normal" in="SourceGraphic" in2="effect1_dropShadow_24_218" result="shape"/>
</filter>
<filter id="filter10_d_24_218" x="70.4802" y="72.9412" width="20.894" height="15.5405" filterUnits="userSpaceOnUse" color-interpolation-filters="sRGB">
<feFlood flood-opacity="0" result="BackgroundImageFix"/>
<feColorMatrix in="SourceAlpha" type="matrix" values="0 0 0 0 0 0 0 0 0 0 0 0 0 0 0 0 0 0 127 0" result="hardAlpha"/>
<feOffset dy="4"/>
<feGaussianBlur stdDeviation="2"/>
<feComposite in2="hardAlpha" operator="out"/>
<feColorMatrix type="matrix" values="0 0 0 0 0 0 0 0 0 0 0 0 0 0 0 0 0 0 0.25 0"/>
<feBlend mode="normal" in2="BackgroundImageFix" result="effect1_dropShadow_24_218"/>
<feBlend mode="normal" in="SourceGraphic" in2="effect1_dropShadow_24_218" result="shape"/>
</filter>
<filter id="filter11_d_24_218" x="92.4878" y="67.3315" width="22.249" height="16.0962" filterUnits="userSpaceOnUse" color-interpolation-filters="sRGB">
<feFlood flood-opacity="0" result="BackgroundImageFix"/>
<feColorMatrix in="SourceAlpha" type="matrix" values="0 0 0 0 0 0 0 0 0 0 0 0 0 0 0 0 0 0 127 0" result="hardAlpha"/>
<feOffset dy="4"/>
<feGaussianBlur stdDeviation="2"/>
<feComposite in2="hardAlpha" operator="out"/>
<feColorMatrix type="matrix" values="0 0 0 0 0 0 0 0 0 0 0 0 0 0 0 0 0 0 0.25 0"/>
<feBlend mode="normal" in2="BackgroundImageFix" result="effect1_dropShadow_24_218"/>
<feBlend mode="normal" in="SourceGraphic" in2="effect1_dropShadow_24_218" result="shape"/>
</filter>
<filter id="filter12_d_24_218" x="101.97" y="46.8638" width="14.0803" height="34.3235" filterUnits="userSpaceOnUse" color-interpolation-filters="sRGB">
<feFlood flood-opacity="0" result="BackgroundImageFix"/>
<feColorMatrix in="SourceAlpha" type="matrix" values="0 0 0 0 0 0 0 0 0 0 0 0 0 0 0 0 0 0 127 0" result="hardAlpha"/>
<feOffset dy="4"/>
<feGaussianBlur stdDeviation="2"/>
<feComposite in2="hardAlpha" operator="out"/>
<feColorMatrix type="matrix" values="0 0 0 0 0 0 0 0 0 0 0 0 0 0 0 0 0 0 0.25 0"/>
<feBlend mode="normal" in2="BackgroundImageFix" result="effect1_dropShadow_24_218"/>
<feBlend mode="normal" in="SourceGraphic" in2="effect1_dropShadow_24_218" result="shape"/>
</filter>
</defs>
</svg>
